<svg width="24" height="25" viewBox="0 0 24 25" fill="none" xmlns="http://www.w3.org/2000/svg">
<path d="M3 6.25H5H21" stroke="#1D084B" stroke-width="2" stroke-linecap="round" stroke-linejoin="round"/>
<path d="M19 6.24998V20.8333C19 21.3858 18.7893 21.9158 18.4142 22.3065C18.0391 22.6972 17.5304 22.9166 17 22.9166H7C6.46957 22.9166 5.96086 22.6972 5.58579 22.3065C5.21071 21.9158 5 21.3858 5 20.8333V6.24998M8 6.24998V4.16665C8 3.61411 8.21071 3.08421 8.58579 2.69351C8.96086 2.30281 9.46957 2.08331 10 2.08331H14C14.5304 2.08331 15.0391 2.30281 15.4142 2.69351C15.7893 3.08421 16 3.61411 16 4.16665V6.24998" stroke="#1D084B" stroke-width="2" stroke-linecap="round" stroke-linejoin="round"/>
<path d="M10 11.4583V17.7083" stroke="#1D084B" stroke-width="2" stroke-linecap="round" stroke-linejoin="round"/>
<path d="M14 11.4583V17.7083" stroke="#1D084B" stroke-width="2" stroke-linecap="round" stroke-linejoin="round"/>
</svg>
